mtllib wood_cube.mtl
o wood_cube

# vertices (24) - mỗi mặt dùng 4 đỉnh riêng để UV độc lập
# Top (+Z)
v -0.025 -0.025  0.025
v  0.025 -0.025  0.025
v  0.025  0.025  0.025
v -0.025  0.025  0.025
# Bottom (-Z)
v -0.025  0.025 -0.025
v  0.025  0.025 -0.025
v  0.025 -0.025 -0.025
v -0.025 -0.025 -0.025
# Right (+X)
v  0.025 -0.025 -0.025
v  0.025  0.025 -0.025
v  0.025  0.025  0.025
v  0.025 -0.025  0.025
# Left (-X)
v -0.025 -0.025  0.025
v -0.025  0.025  0.025
v -0.025  0.025 -0.025
v -0.025 -0.025 -0.025
# Front (+Y)
v -0.025  0.025 -0.025
v -0.025  0.025  0.025
v  0.025  0.025  0.025
v  0.025  0.025 -0.025
# Back (-Y)
v  0.025 -0.025 -0.025
v  0.025 -0.025  0.025
v -0.025 -0.025  0.025
v -0.025 -0.025 -0.025

# UV (dùng chung, mỗi mặt map full ảnh)
vt 0 0
vt 1 0
vt 1 1
vt 0 1

# normals
vn 0 0 1
vn 0 0 -1
vn 1 0 0
vn -1 0 0
vn 0 1 0
vn 0 -1 0

# Top
usemtl MAT_TOP
f 1/1/1  2/2/1  3/3/1
f 1/1/1  3/3/1  4/4/1

# Bottom
usemtl MAT_BOTTOM
f 5/1/2  6/2/2  7/3/2
f 5/1/2  7/3/2  8/4/2

# Right
usemtl MAT_RIGHT
f 9/1/3  10/2/3 11/3/3
f 9/1/3  11/3/3 12/4/3

# Left
usemtl MAT_LEFT
f 13/1/4 14/2/4 15/3/4
f 13/1/4 15/3/4 16/4/4

# Front
usemtl MAT_FRONT
f 17/1/5 18/2/5 19/3/5
f 17/1/5 19/3/5 20/4/5

# Back
usemtl MAT_BACK
f 21/1/6 22/2/6 23/3/6
f 21/1/6 23/3/6 24/4/6